<svg width="160" height="232" viewBox="0 0 160 232" fill="none" xmlns="http://www.w3.org/2000/svg">
<g filter="url(#filter0_d_203_35)">
<path d="M155.637 146.845C155.743 104.234 74.1547 32.3404 80.9288 1.83645C84.7308 -15.2844 4.29659 103.902 4.19107 146.514C4.08554 189.125 37.9024 223.743 79.723 223.834C121.544 223.926 155.532 189.457 155.637 146.845Z" fill="#D30404"/>
</g>
<path d="M19.3987 153.428C19.3987 150.634 21.6633 148.37 24.4568 148.37H50.1053C52.8988 148.37 55.1634 150.634 55.1634 153.428V153.428C55.1634 156.221 52.8988 158.486 50.1053 158.486H24.4568C21.6633 158.486 19.3987 156.221 19.3987 153.428V153.428Z" fill="white"/>
<path d="M56.7544 189.647C53.7625 190.095 50.9275 188.04 50.4222 185.058L45.2881 154.752C44.7828 151.769 46.7986 148.988 49.7904 148.54V148.54C52.7822 148.092 55.6172 150.146 56.1225 153.129L61.2566 183.435C61.7619 186.417 59.7462 189.199 56.7544 189.647V189.647Z" fill="white"/>
<path d="M55.648 189.624C52.5718 188.932 50.7078 185.895 51.4846 182.839L70.4449 108.255C71.2217 105.199 74.3452 103.282 77.4213 103.974V103.974C80.4974 104.665 82.3614 107.703 81.5846 110.758L62.6243 185.343C61.8475 188.398 58.7241 190.315 55.648 189.624V189.624Z" fill="white"/>
<path d="M89.2115 173.886C86.1018 174.429 83.0856 172.358 82.4748 169.26L70.932 110.734C70.3212 107.637 72.347 104.687 75.4567 104.144V104.144C78.5665 103.602 81.5826 105.673 82.1935 108.77L93.7363 167.297C94.3471 170.394 92.3213 173.344 89.2115 173.886V173.886Z" fill="white"/>
<path d="M86.5304 172.911C83.5502 171.915 82.0349 168.725 83.1458 165.786L96.5008 130.451C97.6117 127.512 100.928 125.936 103.908 126.932V126.932C106.889 127.928 108.404 131.118 107.293 134.058L93.9379 169.392C92.827 172.332 89.5105 173.907 86.5304 172.911V172.911Z" fill="white"/>
<path d="M111.963 156.64C108.989 157.652 105.663 156.096 104.535 153.164L97.3215 134.419C96.1932 131.487 97.6896 128.29 100.664 127.278V127.278C103.638 126.266 106.963 127.822 108.092 130.754L115.305 149.499C116.433 152.431 114.937 155.629 111.963 156.64V156.64Z" fill="white"/>
<path d="M144.179 152.389C144.107 155.362 141.638 157.721 138.664 157.657L111.05 157.065C108.076 157.001 105.724 154.539 105.797 151.566V151.566C105.869 148.593 108.337 146.234 111.311 146.298L138.926 146.89C141.899 146.954 144.251 149.416 144.179 152.389V152.389Z" fill="white"/>
<defs>
<filter id="filter0_d_203_35" x="0.190918" y="0.166565" width="159.446" height="231.668" filterUnits="userSpaceOnUse" color-interpolation-filters="sRGB">
<feFlood flood-opacity="0" result="BackgroundImageFix"/>
<feColorMatrix in="SourceAlpha" type="matrix" values="0 0 0 0 0 0 0 0 0 0 0 0 0 0 0 0 0 0 127 0" result="hardAlpha"/>
<feOffset dy="4"/>
<feGaussianBlur stdDeviation="2"/>
<feComposite in2="hardAlpha" operator="out"/>
<feColorMatrix type="matrix" values="0 0 0 0 0 0 0 0 0 0 0 0 0 0 0 0 0 0 0.25 0"/>
<feBlend mode="normal" in2="BackgroundImageFix" result="effect1_dropShadow_203_35"/>
<feBlend mode="normal" in="SourceGraphic" in2="effect1_dropShadow_203_35" result="shape"/>
</filter>
</defs>
</svg>
