<svg width="6010" height="3551" viewBox="0 0 6010 3551" fill="none" xmlns="http://www.w3.org/2000/svg">
<path d="M0 387.027L128 301.118L256 226.487L396.5 161.692L537 107.804L677.5 68.0657L818 39.2353L996.25 12.1521L1174.5 0L1349 0.582433L1523.5 9.31893L1708 27.3743L1886 54.1662L2080.5 94.3541L2288 132.795L2492.5 166.576L2723 202.395L2944 236.468L3230.5 271.414L3468 299.079L3715 326.745L4018 351.789L4334.5 373.339L4575 386.153L4809 394.307L4937.5 397.219L5063 398.966L5125.5 398.675L5188 398.384L5293.5 397.219L5432 393.142L5479 390.812L5522 389.065L5558.5 387.318L5596 384.988L5661 380.62L5748.5 373.048L5855.5 360.235L5918 351.061L5952 342.762L5982.5 339.34L6001.5 337.75H6010V2102H0V387.027Z" fill="#790202"/>
<path d="M0 530.027L128 444.118L256 369.487L396.5 304.692L537 250.804L677.5 211.066L818 182.235L996.25 155.152L1174.5 143L1349 143.582L1523.5 152.319L1708 170.374L1886 197.166L2080.5 237.354L2288 275.795L2492.5 309.576L2723 345.395L2944 379.468L3230.5 414.414L3468 442.079L3715 469.745L4018 494.789L4334.5 516.339L4575 529.153L4809 537.307L4937.5 540.219L5063 541.966L5125.5 541.675L5188 541.384L5293.5 540.219L5432 536.142L5479 533.812L5522 532.065L5558.5 530.318L5596 527.988L5661 523.62L5748.5 516.048L5855.5 503.235L5918 494.061L5952 485.762L5982.5 482.34L6001.5 480.75H6010V2245H0V530.027Z" fill="#890000"/>
<path d="M0 1836.03L128 1750.12L256 1675.49L396.5 1610.69L537 1556.8L677.5 1517.07L818 1488.24L996.25 1461.15L1174.5 1449L1349 1449.58L1523.5 1458.32L1708 1476.37L1886 1503.17L2080.5 1543.35L2288 1581.79L2492.5 1615.58L2723 1651.4L2944 1685.47L3230.5 1720.41L3468 1748.08L3715 1775.74L4018 1800.79L4334.5 1822.34L4575 1835.15L4809 1843.31L4937.5 1846.22L5063 1847.97L5125.5 1847.68L5188 1847.38L5293.5 1846.22L5432 1842.14L5479 1839.81L5522 1838.07L5558.5 1836.32L5596 1833.99L5661 1829.62L5748.5 1822.05L5855.5 1809.23L5918 1800.06L5952 1791.76L5982.5 1788.34L6001.5 1786.75H6010V3551H0V1836.03Z" fill="#890000"/>
</svg>
