<svg width="445" height="439" viewBox="0 0 445 439" fill="none" xmlns="http://www.w3.org/2000/svg">
<ellipse cx="222.5" cy="219.5" rx="222.5" ry="219.5" fill="white"/>
<g filter="url(#filter0_d_182_56)">
<path d="M343.438 269.88C343.606 202.985 214.4 98.7674 225.264 50.8801C231.361 24.0026 101.449 211.637 101.281 278.532C101.113 345.427 154.62 390.597 221.691 390.741C288.762 390.886 343.27 336.775 343.438 269.88Z" fill="#F49A29"/>
</g>
<path d="M320.971 267.398C321.123 207.071 205.314 105.294 214.932 62.1083C220.33 37.8696 106.146 206.61 105.993 266.937C105.84 327.263 153.841 376.271 213.205 376.398C272.57 376.525 320.818 327.724 320.971 267.398Z" fill="#F8BF65"/>
<path d="M332.225 264.435C334.614 286.647 325.053 315.764 307.832 339.343C290.613 362.919 265.827 380.838 237.865 380.838C229.743 380.838 222.905 374.774 217.203 364.779C211.514 354.805 207.045 341.061 203.617 326.029C196.763 295.972 194.103 260.907 194.103 240.924C194.103 220.914 194.402 180.287 197.506 141.823C199.057 122.589 201.31 103.911 204.572 88.6258C206.204 80.9833 208.086 74.2008 210.254 68.6268C212.235 63.535 214.443 59.4836 216.893 56.7053C218.777 69.9874 226.417 86.5871 236.89 104.689C247.652 123.289 261.445 143.541 275.176 163.506C276.235 165.046 277.294 166.584 278.351 168.12C291.002 186.501 303.397 204.509 313.124 220.647C323.678 238.155 331.036 253.374 332.225 264.435Z" fill="#F9B85A" fill-opacity="0.63" stroke="#F8BF65"/>
<path d="M304.657 240.845C304.657 264.18 301.911 261.97 285.587 261.97C269.263 261.97 231.413 237.361 227.284 206.296C224.468 185.103 223.078 122.894 227.284 125.535C251.121 140.499 304.657 217.51 304.657 240.845Z" fill="#FCDAAA"/>
<defs>
<filter id="filter0_d_182_56" x="97.2809" y="48.2651" width="250.157" height="350.477" filterUnits="userSpaceOnUse" color-interpolation-filters="sRGB">
<feFlood flood-opacity="0" result="BackgroundImageFix"/>
<feColorMatrix in="SourceAlpha" type="matrix" values="0 0 0 0 0 0 0 0 0 0 0 0 0 0 0 0 0 0 127 0" result="hardAlpha"/>
<feOffset dy="4"/>
<feGaussianBlur stdDeviation="2"/>
<feComposite in2="hardAlpha" operator="out"/>
<feColorMatrix type="matrix" values="0 0 0 0 0 0 0 0 0 0 0 0 0 0 0 0 0 0 0.25 0"/>
<feBlend mode="normal" in2="BackgroundImageFix" result="effect1_dropShadow_182_56"/>
<feBlend mode="normal" in="SourceGraphic" in2="effect1_dropShadow_182_56" result="shape"/>
</filter>
</defs>
</svg>
