<svg width="869" height="235" viewBox="0 0 869 235" fill="none" xmlns="http://www.w3.org/2000/svg">
<g filter="url(#filter0_d_101_88)">
<path d="M155.637 146.845C155.743 104.234 74.1547 32.3404 80.9288 1.83645C84.7308 -15.2844 4.29659 103.902 4.19107 146.514C4.08554 189.125 37.9024 223.743 79.723 223.834C121.544 223.926 155.532 189.457 155.637 146.845Z" fill="#D30404"/>
</g>
<path d="M19.3987 153.428C19.3987 150.634 21.6633 148.37 24.4568 148.37H50.1053C52.8988 148.37 55.1634 150.634 55.1634 153.428V153.428C55.1634 156.221 52.8988 158.486 50.1053 158.486H24.4568C21.6633 158.486 19.3987 156.221 19.3987 153.428V153.428Z" fill="white"/>
<path d="M56.7544 189.647C53.7626 190.095 50.9276 188.04 50.4223 185.058L45.2882 154.752C44.7829 151.769 46.7986 148.988 49.7905 148.54V148.54C52.7823 148.092 55.6173 150.146 56.1226 153.129L61.2567 183.435C61.762 186.417 59.7462 189.199 56.7544 189.647V189.647Z" fill="white"/>
<path d="M55.648 189.624C52.5719 188.932 50.7079 185.895 51.4847 182.839L70.445 108.255C71.2218 105.199 74.3452 103.282 77.4214 103.974V103.974C80.4975 104.665 82.3615 107.703 81.5847 110.758L62.6244 185.343C61.8476 188.398 58.7241 190.315 55.648 189.624V189.624Z" fill="white"/>
<path d="M89.2115 173.886C86.1018 174.429 83.0856 172.358 82.4748 169.26L70.932 110.734C70.3212 107.637 72.347 104.687 75.4567 104.144V104.144C78.5665 103.602 81.5826 105.673 82.1935 108.77L93.7363 167.297C94.3471 170.394 92.3213 173.344 89.2115 173.886V173.886Z" fill="white"/>
<path d="M86.5303 172.911C83.5501 171.915 82.0348 168.725 83.1457 165.786L96.5008 130.451C97.6117 127.512 100.928 125.936 103.908 126.932V126.932C106.889 127.928 108.404 131.118 107.293 134.058L93.9379 169.392C92.827 172.332 89.5105 173.907 86.5303 172.911V172.911Z" fill="white"/>
<path d="M111.963 156.64C108.989 157.652 105.663 156.096 104.535 153.164L97.3216 134.419C96.1933 131.487 97.6897 128.29 100.664 127.278V127.278C103.638 126.266 106.963 127.822 108.092 130.754L115.305 149.499C116.433 152.431 114.937 155.629 111.963 156.64V156.64Z" fill="white"/>
<path d="M144.179 152.389C144.107 155.362 141.638 157.721 138.664 157.657L111.05 157.065C108.076 157.001 105.724 154.539 105.796 151.566V151.566C105.868 148.593 108.337 146.234 111.311 146.298L138.925 146.89C141.899 146.954 144.251 149.416 144.179 152.389V152.389Z" fill="white"/>
<path d="M200.11 34.3584C203.756 34.3584 206.596 35.1071 208.631 36.6045C210.682 38.0856 211.707 40.2503 211.707 43.0986C211.707 46.5003 210.47 49.0312 207.996 50.6914C205.522 52.3353 201.941 53.1572 197.254 53.1572C196.277 53.1572 195.024 53.0677 193.494 52.8887V67H191.346V34.3584H200.11ZM209.461 43.1963C209.461 40.7549 208.574 38.9971 206.8 37.9229C205.026 36.8486 202.527 36.3115 199.305 36.3115H193.494V50.96C195.122 51.1227 196.375 51.2041 197.254 51.2041C201.551 51.2041 204.66 50.5205 206.58 49.1533C208.501 47.7861 209.461 45.8005 209.461 43.1963ZM226.945 34.3584H229.094V49.2021H248.039V34.3584H250.188V67H248.039V51.1553H229.094V67H226.945V34.3584ZM267.428 34.3584H269.576V67H267.428V34.3584ZM286.768 34.3584H288.916V65.0469H305.469V67H286.768V34.3584ZM320.512 34.3584H322.66V67H320.512V34.3584ZM348.616 34.3584C352.262 34.3584 355.102 35.1071 357.137 36.6045C359.188 38.0856 360.213 40.2503 360.213 43.0986C360.213 46.5003 358.976 49.0312 356.502 50.6914C354.028 52.3353 350.447 53.1572 345.76 53.1572C344.783 53.1572 343.53 53.0677 342 52.8887V67H339.852V34.3584H348.616ZM357.967 43.1963C357.967 40.7549 357.08 38.9971 355.306 37.9229C353.532 36.8486 351.033 36.3115 347.811 36.3115H342V50.96C343.628 51.1227 344.881 51.2041 345.76 51.2041C350.057 51.2041 353.165 50.5205 355.086 49.1533C357.007 47.7861 357.967 45.8005 357.967 43.1963ZM384.216 34.3584C387.862 34.3584 390.702 35.1071 392.736 36.6045C394.787 38.0856 395.812 40.2503 395.812 43.0986C395.812 46.5003 394.576 49.0312 392.102 50.6914C389.628 52.3353 386.047 53.1572 381.359 53.1572C380.383 53.1572 379.13 53.0677 377.6 52.8887V67H375.451V34.3584H384.216ZM393.566 43.1963C393.566 40.7549 392.679 38.9971 390.905 37.9229C389.131 36.8486 386.633 36.3115 383.41 36.3115H377.6V50.96C379.227 51.1227 380.48 51.2041 381.359 51.2041C385.656 51.2041 388.765 50.5205 390.686 49.1533C392.606 47.7861 393.566 45.8005 393.566 43.1963ZM411.051 34.3584H413.199V67H411.051V34.3584ZM432.246 34.3584L446.943 54.8906L453.096 63.7041H453.242C453.014 61.6533 452.9 58.2842 452.9 53.5967V34.3584H455.049V67H453.193L438.447 46.248L432.344 37.6055H432.246C432.441 39.6562 432.539 43.473 432.539 49.0557V67H430.391V34.3584H432.246ZM472.24 34.3584H490.844V36.3115H474.389V49.2998H489.452V51.2529H474.389V65.0469H491.796V67H472.24V34.3584ZM532.966 34.3584C535 34.3584 536.587 34.4398 537.727 34.6025C543.016 35.6279 545.661 38.4274 545.661 43.001C545.661 45.6702 544.79 47.8675 543.049 49.5928C541.307 51.318 539.012 52.2539 536.164 52.4004V52.498L547.565 67H544.929L533.527 52.6445H527.961V67H525.812V34.3584H532.966ZM543.415 42.9521C543.415 40.5107 542.487 38.7936 540.632 37.8008C538.776 36.8079 536.14 36.3115 532.722 36.3115H527.961V50.6914H532.819C536.368 50.6914 539.021 50.0892 540.778 48.8848C542.536 47.6803 543.415 45.7028 543.415 42.9521ZM562.291 34.3584H580.895V36.3115H564.439V49.2998H579.503V51.2529H564.439V65.0469H581.847V67H562.291V34.3584ZM603.994 34.3584C606.875 34.3584 609.113 34.5212 610.708 34.8467C614.728 35.8721 617.715 37.7438 619.668 40.4619C621.621 43.1637 622.598 46.5085 622.598 50.4961C622.598 54.6628 621.532 58.1784 619.399 61.043C617.284 63.9076 614.386 65.7305 610.708 66.5117C609.08 66.8372 607.078 67 604.702 67H597.598V34.3584H603.994ZM620.303 50.5449C620.303 46.9479 619.489 43.9857 617.861 41.6582C616.25 39.3145 613.914 37.7275 610.854 36.8975C609.91 36.6533 608.853 36.4987 607.681 36.4336C606.509 36.3522 604.979 36.3115 603.091 36.3115H599.746V65.0469H603.262C605.036 65.0469 606.436 65.0225 607.461 64.9736C608.503 64.9085 609.479 64.7702 610.391 64.5586C613.483 63.875 615.908 62.2881 617.666 59.7979C619.424 57.3076 620.303 54.2233 620.303 50.5449ZM654.124 50.96C654.124 47.542 654.816 44.5309 656.199 41.9268C657.583 39.3063 659.52 37.2799 662.01 35.8477C664.516 34.4154 667.389 33.6992 670.628 33.6992C671.963 33.6992 673.289 33.8294 674.607 34.0898C675.942 34.3503 676.902 34.6514 677.488 34.9932V37.0439C674.982 36.1488 672.76 35.7012 670.823 35.7012C668.154 35.7012 665.729 36.279 663.548 37.4346C661.367 38.5902 659.633 40.3154 658.348 42.6104C657.062 44.9053 656.419 47.7048 656.419 51.0088C656.419 55.6963 657.697 59.3014 660.252 61.8242C662.824 64.347 666.518 65.6084 671.336 65.6084C673.582 65.6084 675.747 65.1689 677.83 64.29V66.292C677.016 66.7152 675.999 67.0407 674.778 67.2686C673.574 67.4964 672.321 67.6104 671.019 67.6104C665.582 67.6104 661.408 66.1699 658.494 63.2891C655.581 60.4082 654.124 56.2985 654.124 50.96ZM700.515 34.3584C702.549 34.3584 704.136 34.4398 705.275 34.6025C710.565 35.6279 713.21 38.4274 713.21 43.001C713.21 45.6702 712.339 47.8675 710.598 49.5928C708.856 51.318 706.561 52.2539 703.713 52.4004V52.498L715.114 67H712.478L701.076 52.6445H695.51V67H693.361V34.3584H700.515ZM710.964 42.9521C710.964 40.5107 710.036 38.7936 708.181 37.8008C706.325 36.8079 703.688 36.3115 700.271 36.3115H695.51V50.6914H700.368C703.916 50.6914 706.569 50.0892 708.327 48.8848C710.085 47.6803 710.964 45.7028 710.964 42.9521ZM728.839 50.6914C728.839 47.4525 729.465 44.5391 730.719 41.9512C731.988 39.3633 733.746 37.3451 735.992 35.8965C738.238 34.4316 740.785 33.6992 743.634 33.6992C746.612 33.6992 749.216 34.4316 751.446 35.8965C753.692 37.3451 755.418 39.3551 756.622 41.9268C757.843 44.4984 758.453 47.4199 758.453 50.6914C758.453 53.9141 757.826 56.8112 756.573 59.3828C755.32 61.9544 753.57 63.9727 751.324 65.4375C749.094 66.8861 746.572 67.6104 743.756 67.6104C740.745 67.6104 738.108 66.8861 735.846 65.4375C733.6 63.9889 731.866 61.987 730.646 59.4316C729.441 56.86 728.839 53.9466 728.839 50.6914ZM756.134 50.6914C756.134 47.5664 755.58 44.8727 754.474 42.6104C753.367 40.3317 751.861 38.6064 749.957 37.4346C748.069 36.2464 745.961 35.6523 743.634 35.6523C741.339 35.6523 739.239 36.2464 737.335 37.4346C735.431 38.6064 733.917 40.3317 732.794 42.6104C731.687 44.8727 731.134 47.5664 731.134 50.6914C731.134 53.849 731.695 56.5589 732.818 58.8213C733.941 61.0674 735.455 62.7682 737.359 63.9238C739.28 65.0794 741.412 65.6572 743.756 65.6572C746.051 65.6572 748.134 65.0794 750.006 63.9238C751.878 62.7682 753.367 61.0674 754.474 58.8213C755.58 56.5589 756.134 53.849 756.134 50.6914ZM773.667 65.8525V63.5088C774.465 63.9971 775.767 64.4691 777.573 64.9248C779.38 65.3805 780.877 65.6084 782.065 65.6084C784.995 65.6084 787.266 65.0632 788.877 63.9727C790.505 62.8822 791.318 61.0267 791.318 58.4062C791.318 57.0879 791.042 55.9974 790.488 55.1348C789.951 54.2721 789.211 53.5804 788.267 53.0596C787.323 52.5387 785.63 51.9447 783.188 51.2773C781.073 50.7402 779.372 50.2113 778.086 49.6904C776.8 49.1533 775.718 48.3314 774.839 47.2246C773.96 46.1016 773.521 44.596 773.521 42.708C773.521 39.9899 774.497 37.8089 776.45 36.165C778.42 34.5212 780.991 33.6992 784.165 33.6992C786.248 33.6992 788.283 34.0003 790.269 34.6025C791.066 34.8955 791.782 35.1966 792.417 35.5059V37.8496C791.424 37.3939 790.57 37.0277 789.854 36.751C789.154 36.458 788.299 36.2057 787.29 35.9941C786.297 35.7826 785.207 35.6686 784.019 35.6523C781.203 35.6523 779.111 36.3034 777.744 37.6055C776.393 38.9076 775.718 40.641 775.718 42.8057C775.718 44.1729 776.011 45.2471 776.597 46.0283C777.199 46.8096 778.005 47.4118 779.014 47.835C780.023 48.2581 781.528 48.7464 783.53 49.2998C785.776 49.9183 787.534 50.4961 788.804 51.0332C790.073 51.554 791.172 52.4004 792.1 53.5723C793.044 54.7279 793.516 56.3066 793.516 58.3086C793.516 61.2383 792.507 63.5251 790.488 65.1689C788.486 66.7965 785.63 67.6104 781.919 67.6104C780.389 67.6104 778.794 67.4069 777.134 67C775.474 66.5931 774.318 66.2106 773.667 65.8525ZM808.583 65.8525V63.5088C809.381 63.9971 810.683 64.4691 812.489 64.9248C814.296 65.3805 815.793 65.6084 816.981 65.6084C819.911 65.6084 822.182 65.0632 823.793 63.9727C825.421 62.8822 826.234 61.0267 826.234 58.4062C826.234 57.0879 825.958 55.9974 825.404 55.1348C824.867 54.2721 824.127 53.5804 823.183 53.0596C822.239 52.5387 820.546 51.9447 818.104 51.2773C815.989 50.7402 814.288 50.2113 813.002 49.6904C811.716 49.1533 810.634 48.3314 809.755 47.2246C808.876 46.1016 808.437 44.596 808.437 42.708C808.437 39.9899 809.413 37.8089 811.366 36.165C813.336 34.5212 815.907 33.6992 819.081 33.6992C821.164 33.6992 823.199 34.0003 825.185 34.6025C825.982 34.8955 826.698 35.1966 827.333 35.5059V37.8496C826.34 37.3939 825.486 37.0277 824.77 36.751C824.07 36.458 823.215 36.2057 822.206 35.9941C821.213 35.7826 820.123 35.6686 818.935 35.6523C816.119 35.6523 814.027 36.3034 812.66 37.6055C811.309 38.9076 810.634 40.641 810.634 42.8057C810.634 44.1729 810.927 45.2471 811.513 46.0283C812.115 46.8096 812.921 47.4118 813.93 47.835C814.939 48.2581 816.444 48.7464 818.446 49.2998C820.692 49.9183 822.45 50.4961 823.72 51.0332C824.989 51.554 826.088 52.4004 827.016 53.5723C827.96 54.7279 828.432 56.3066 828.432 58.3086C828.432 61.2383 827.423 63.5251 825.404 65.1689C823.402 66.7965 820.546 67.6104 816.835 67.6104C815.305 67.6104 813.71 67.4069 812.05 67C810.39 66.5931 809.234 66.2106 808.583 65.8525Z" fill="black"/>
<path d="M215.865 133.161V149.348H216.158C217.33 143.586 219.259 139.313 221.944 136.53C224.63 133.698 227.608 132.282 230.88 132.282C234.054 132.282 236.642 133.43 238.644 135.725C240.646 137.971 241.646 140.754 241.646 144.074C241.646 146.906 240.89 149.201 239.376 150.959C237.862 152.668 236.031 153.522 233.883 153.522C231.734 153.522 229.879 152.717 228.316 151.105C226.803 149.494 226.046 147.712 226.046 145.759C226.046 143.317 226.461 141.608 227.291 140.632C228.17 139.655 228.609 139.021 228.609 138.728C228.609 138.19 228.219 137.922 227.438 137.922C224.996 137.922 222.652 140.314 220.406 145.1C218.209 149.885 217.11 157.648 217.11 168.391V188.532H228.023V193H189.498V188.532H197.115V138.581H189.498V134.04H199.239C204.415 134.04 208.224 133.894 210.665 133.601L213.302 133.161H215.865ZM305.733 160.114H269.698V169.636C269.698 177.106 270.357 182.282 271.676 185.163C273.043 187.995 276.144 189.411 280.978 189.411C285.226 189.411 289.181 188.044 292.843 185.31C296.554 182.575 299.386 178.327 301.339 172.565H305.733C303.927 179.987 300.582 185.554 295.699 189.265C290.816 192.976 284.957 194.831 278.121 194.831C268.795 194.831 261.324 191.633 255.709 185.236C250.143 178.84 247.359 171.467 247.359 163.117C247.359 155.109 250.191 147.98 255.855 141.73C261.52 135.432 268.6 132.282 277.096 132.282C284.42 132.282 290.792 134.577 296.212 139.167C301.632 143.757 304.806 150.739 305.733 160.114ZM269.698 155.354H285.445V149.201C285.445 143.879 284.713 140.437 283.248 138.874C281.832 137.263 279.879 136.457 277.389 136.457C275.045 136.457 273.165 137.165 271.749 138.581C270.382 139.997 269.698 143.586 269.698 149.348V155.354ZM370.187 93.3906V188.679H378.17V193H369.015C366.036 193 363.253 193.073 360.665 193.22L352.315 193.879H350.265V185.017H349.972C346.847 191.56 341.988 194.831 335.396 194.831C329 194.831 323.385 191.755 318.551 185.603C313.766 179.401 311.373 171.76 311.373 162.678C311.373 153.938 313.814 146.687 318.697 140.925C323.58 135.163 329.244 132.282 335.689 132.282C341.158 132.282 346.017 134.772 350.265 139.753V99.25H338.399V94.7822H348.873C351.266 94.7822 355.27 94.5625 360.885 94.123C366.5 93.6348 369.601 93.3906 370.187 93.3906ZM350.265 170.222V154.475C350.265 148.371 349.117 143.854 346.822 140.925C344.576 137.946 342.257 136.457 339.864 136.457C338.009 136.457 336.568 137.507 335.543 139.606C334.518 141.706 334.005 145.954 334.005 152.351V174.396C334.005 180.5 334.371 184.602 335.104 186.701C335.885 188.801 337.276 189.851 339.278 189.851C341.378 189.851 343.722 188.483 346.31 185.749C348.946 183.015 350.265 177.839 350.265 170.222ZM465.621 193H383.15V188.166H396.48V99.543H383.15V94.7822H435.152V99.543H420.504V188.166H429.806C434.981 188.166 438.79 187.897 441.231 187.36C443.722 186.823 446.456 185.261 449.435 182.673C452.462 180.036 455.001 176.74 457.052 172.785C459.151 168.83 461.007 164.46 462.618 159.675H467.159L465.621 193ZM479.83 107.233C479.83 104.255 480.855 101.74 482.906 99.6895C485.006 97.5898 487.521 96.54 490.45 96.54C493.429 96.54 495.968 97.5898 498.067 99.6895C500.216 101.789 501.29 104.304 501.29 107.233C501.29 110.163 500.216 112.702 498.067 114.851C495.968 116.95 493.429 118 490.45 118C487.521 118 485.006 116.95 482.906 114.851C480.855 112.702 479.83 110.163 479.83 107.233ZM501.144 132.282V188.532H506.856V193H474.117V188.532H481.148V138.581H474.117V134.04H483.419C488.253 134.04 492.306 133.747 495.577 133.161C498.849 132.575 500.704 132.282 501.144 132.282ZM544.137 138.581V188.532H555.636V193H514.84V188.532H524.288V138.581H513.961V134.04H524.288C524.728 106.94 534.078 93.3906 552.34 93.3906C557.32 93.3906 561.446 94.5137 564.718 96.7598C567.989 99.0059 569.625 102.033 569.625 105.842C569.625 108.527 568.697 110.773 566.842 112.58C564.986 114.387 562.813 115.29 560.323 115.29C557.931 115.29 555.929 114.558 554.317 113.093C552.706 111.579 551.9 109.675 551.9 107.38C551.9 105.231 552.486 103.522 553.658 102.253C554.879 100.935 555.489 100.08 555.489 99.6895C555.489 98.2734 554.195 97.5654 551.607 97.5654C549.068 97.5654 547.018 98.542 545.455 100.495C543.941 102.448 543.185 104.987 543.185 108.112L544.137 126.13V134.04H554.757V138.581H544.137ZM621.7 160.114H585.665V169.636C585.665 177.106 586.324 182.282 587.643 185.163C589.01 187.995 592.11 189.411 596.944 189.411C601.192 189.411 605.147 188.044 608.81 185.31C612.521 182.575 615.353 178.327 617.306 172.565H621.7C619.894 179.987 616.549 185.554 611.666 189.265C606.783 192.976 600.924 194.831 594.088 194.831C584.762 194.831 577.291 191.633 571.676 185.236C566.109 178.84 563.326 171.467 563.326 163.117C563.326 155.109 566.158 147.98 571.822 141.73C577.486 135.432 584.566 132.282 593.062 132.282C600.387 132.282 606.759 134.577 612.179 139.167C617.599 143.757 620.772 150.739 621.7 160.114ZM585.665 155.354H601.412V149.201C601.412 143.879 600.68 140.437 599.215 138.874C597.799 137.263 595.846 136.457 593.355 136.457C591.012 136.457 589.132 137.165 587.716 138.581C586.349 139.997 585.665 143.586 585.665 149.348V155.354ZM632.54 182.233C632.54 178.718 633.81 175.715 636.349 173.225C638.888 170.686 641.866 169.416 645.284 169.416C648.8 169.416 651.803 170.686 654.293 173.225C656.832 175.715 658.102 178.718 658.102 182.233C658.102 185.749 656.856 188.752 654.366 191.242C651.876 193.732 648.849 194.978 645.284 194.978C641.866 194.978 638.888 193.732 636.349 191.242C633.81 188.703 632.54 185.7 632.54 182.233ZM695.968 132.282V141.584H696.261C699.532 135.383 704.415 132.282 710.909 132.282C717.11 132.282 722.677 135.358 727.608 141.511C732.589 147.614 735.079 155.036 735.079 163.776C735.079 172.565 732.809 179.938 728.268 185.896C723.727 191.853 718.16 194.831 711.568 194.831C705.465 194.831 700.265 192.121 695.968 186.701V227.058H705.27V231.525H667.916V227.058H675.973V138.581H667.916V134.04H671.065C671.944 134.04 673.58 134.016 675.973 133.967C678.365 133.869 681.1 133.649 684.176 133.308L693.844 132.282H695.968ZM695.968 155.207V171.247C695.968 177.399 697.14 182.136 699.483 185.456C701.827 188.776 704.391 190.437 707.174 190.437C708.736 190.437 710.006 189.631 710.982 188.02C711.959 186.359 712.447 181.672 712.447 173.957V155.5C712.447 147.688 711.983 142.658 711.056 140.412C710.128 138.166 708.785 137.043 707.027 137.043C703.512 137.043 700.777 138.752 698.824 142.17C696.92 145.588 695.968 149.934 695.968 155.207ZM770.089 93.3906V146.345H770.382C774.923 136.97 781.979 132.282 791.549 132.282C795.748 132.282 799.972 133.601 804.22 136.237C808.468 138.874 810.592 144.001 810.592 151.618V188.532H818.941V193H782.247V188.532H790.597V147.37C790.597 141.706 788.717 138.874 784.957 138.874C780.465 138.874 776.852 141.145 774.117 145.686C771.432 150.178 770.089 153.107 770.089 154.475V188.532H778.658V193H741.598V188.532H750.094V99.25H741.012V94.7822H749.068C753.316 94.7822 757.882 94.5381 762.765 94.0498L767.818 93.3906H770.089Z" fill="black"/>
<defs>
<filter id="filter0_d_101_88" x="0.190796" y="0.166565" width="159.446" height="231.668" filterUnits="userSpaceOnUse" color-interpolation-filters="sRGB">
<feFlood flood-opacity="0" result="BackgroundImageFix"/>
<feColorMatrix in="SourceAlpha" type="matrix" values="0 0 0 0 0 0 0 0 0 0 0 0 0 0 0 0 0 0 127 0" result="hardAlpha"/>
<feOffset dy="4"/>
<feGaussianBlur stdDeviation="2"/>
<feComposite in2="hardAlpha" operator="out"/>
<feColorMatrix type="matrix" values="0 0 0 0 0 0 0 0 0 0 0 0 0 0 0 0 0 0 0.25 0"/>
<feBlend mode="normal" in2="BackgroundImageFix" result="effect1_dropShadow_101_88"/>
<feBlend mode="normal" in="SourceGraphic" in2="effect1_dropShadow_101_88" result="shape"/>
</filter>
</defs>
</svg>
